<svg xmlns="http://www.w3.org/2000/svg" viewBox="0 0 131.59 185.52"><defs><style>.cls-1{font-size:150px;letter-spacing:-0.05em;}.cls-1,.cls-6,.cls-7{font-family:VoxRound-Semibold, Vox Round;font-weight:600;}.cls-10,.cls-2,.cls-3,.cls-4,.cls-5,.cls-8,.cls-9{fill:none;stroke-miterlimit:10;}.cls-2,.cls-3,.cls-4,.cls-5,.cls-8{stroke:#000;}.cls-2,.cls-3{stroke-width:10px;}.cls-3,.cls-5,.cls-8{stroke-linecap:square;}.cls-4,.cls-5{stroke-width:1.5px;}.cls-6,.cls-7{font-size:19px;}.cls-6{letter-spacing:0.04em;}.cls-7{letter-spacing:0.04em;}.cls-8{stroke-width:2px;}.cls-10,.cls-9{stroke:#070707;}.cls-9{stroke-width:0.75px;}</style></defs><g id="Layer_2" data-name="Layer 2"><g id="Layer_2-2" data-name="Layer 2"><text class="cls-1" transform="translate(0 143.37) scale(0.93 1)">R</text><line class="cls-2" x1="67.64" y1="138.24" x2="90.68" y2="138.24"/><line class="cls-3" x1="126.59" y1="23.37" x2="126.59" y2="138.24"/><line class="cls-3" x1="36.27" y1="23.37" x2="126.59" y2="23.37"/><line class="cls-2" x1="77.07" y1="141.25" x2="77.07" y2="140.87"/><rect x="92.99" y="89.29" width="9.13" height="5.5"/><line class="cls-3" x1="86.27" y1="23.37" x2="86.27" y2="94.79"/><line class="cls-3" x1="87.13" y1="25.91" x2="124.55" y2="136.86"/><line class="cls-3" x1="86.27" y1="114.31" x2="86.27" y2="138.24"/><rect x="9.18" y="18.41" width="14.31" height="9.97"/><rect x="63.74" y="9.61" width="1.47" height="0.89"/><line class="cls-4" x1="62.86" y1="2.66" x2="62.86" y2="11.18"/><line class="cls-4" x1="63.02" y1="2.96" x2="69.16" y2="16.16"/><line class="cls-4" x1="62.86" y1="12.05" x2="62.86" y2="16.36"/><line class="cls-5" x1="77.88" y1="3.4" x2="77.88" y2="15.6"/><line class="cls-5" x1="72.82" y1="3.4" x2="72.82" y2="10.42"/><line class="cls-5" x1="73.12" y1="3.6" x2="77.62" y2="15.46"/><line class="cls-5" x1="72.82" y1="12.8" x2="72.82" y2="15.6"/><text class="cls-6" transform="translate(48.06 16.36)">R</text><line class="cls-4" x1="57.44" y1="15.6" x2="62.23" y2="15.6"/><line class="cls-5" x1="87.9" y1="3.4" x2="87.9" y2="15.6"/><line class="cls-5" x1="82.71" y1="3.4" x2="87.9" y2="3.4"/><line class="cls-5" x1="82.95" y1="4.54" x2="87.56" y2="15.26"/><text class="cls-7" transform="translate(91.44 16.36) scale(0.99 1)">R</text><line class="cls-4" x1="100.63" y1="15.6" x2="102.8" y2="15.6"/><line class="cls-8" x1="107.23" y1="5.32" x2="107.23" y2="15.38"/><rect x="106.11" y="2.64" width="2.22" height="1.08"/><line class="cls-5" x1="130.58" y1="3.43" x2="130.58" y2="15.63"/><line class="cls-5" x1="125.39" y1="3.43" x2="130.58" y2="3.43"/><line class="cls-5" x1="125.63" y1="4.56" x2="130.24" y2="15.29"/><rect x="113.66" y="6.7" width="6.4" height="6.4"/><line class="cls-9" x1="112.86" y1="4.23" x2="120.86" y2="4.23"/><line class="cls-9" x1="112.86" y1="15.6" x2="120.86" y2="15.6"/><line class="cls-9" x1="122.54" y1="6.06" x2="122.54" y2="14.06"/><line class="cls-9" x1="111.31" y1="5.92" x2="111.31" y2="13.92"/><line class="cls-10" x1="110.52" y1="9.86" x2="110.52" y2="8.29"/><line class="cls-10" x1="123.38" y1="9.9" x2="123.38" y2="8.32"/></g></g></svg>